<?xml version="1.0" encoding="UTF-8" standalone="no"?>
<svg
   xmlns:dc="http://purl.org/dc/elements/1.1/"
   xmlns:cc="http://creativecommons.org/ns#"
   xmlns:rdf="http://www.w3.org/1999/02/22-rdf-syntax-ns#"
   xmlns:svg="http://www.w3.org/2000/svg"
   xmlns="http://www.w3.org/2000/svg"
   viewBox="0 0 577.33331 393.33334"
   height="393.33334"
   width="577.33331"
   xml:space="preserve"
   id="svg2"
   version="1.1"><metadata
     id="metadata8"><rdf:RDF><cc:Work
         rdf:about=""><dc:format>image/svg+xml</dc:format><dc:type
           rdf:resource="http://purl.org/dc/dcmitype/StillImage" /></cc:Work></rdf:RDF></metadata><defs
     id="defs6" /><g
     transform="matrix(1.3333333,0,0,-1.3333333,0,393.33333)"
     id="g10"><g
       transform="scale(0.1)"
       id="g12"><path
         id="path14"
         style="fill:#1c63b7;fill-opacity:1;fill-rule:nonzero;stroke:none"
         d="M 4330,0 H 0 V 2950 H 4330 V 0" /><path
         id="path16"
         style="fill:#ffffff;fill-opacity:1;fill-rule:nonzero;stroke:none"
         d="m 564.754,1903.19 c -5.508,5.06 -10.934,10.08 -16.305,15.07 3.129,1.94 6.16,3.93 9.383,5.83 32.789,19.34 72.602,41.22 115.356,65.82 35.949,-27.03 72.687,-52.64 109.734,-76.93 -43.442,-26.29 -88.785,-53.48 -134.039,-81.53 -29.121,23.27 -57.406,47.15 -84.129,71.74 z m 529.456,-874.25 c -180.253,114.65 -462.687,218.92 -626.605,376.77 -2.441,2.35 -4.855,4.63 -7.281,6.93 2.051,1.68 4.047,3.33 6.117,5.01 39.504,32.12 85.372,63.43 134.825,95.11 204.726,-157.06 473.914,-275.12 557.914,-327.44 88.15,-54.95 162.13,-133.33 187.27,-256.199 22.39,138.519 27.39,284.289 -10.23,373.649 -46.42,110.32 -115.62,171.68 -215,226.22 -74.31,40.79 -164.208,91.48 -256.24,149.88 48.172,32.21 95.672,66.28 140.64,103.04 37.58,-20.05 74.46,-38.93 110.09,-56.68 128.77,-64.13 200.2,-135.49 230.63,-242.05 42.03,197.93 -0.16,295.49 -36.83,354.88 -37.75,61.14 -88.64,104.44 -127.82,131.69 40.12,85.98 -4.77,201.29 -93.25,237.34 17.37,-47.65 -21,-95.17 -76.37,-141.1 -40.449,21.76 -82.308,44.22 -123.894,67.27 32.433,26.58 63.008,55.03 89.722,85.74 71.962,82.71 28.352,183.57 -59.699,211.52 19.172,-58.11 -61.172,-107.25 -102.433,-132.58 -31.485,-19.32 -67.317,-38.03 -105.172,-57.75 -29.012,19.69 -55.985,39.65 -79.946,59.85 -3.425,2.89 -6.636,5.8 -9.933,8.69 1.648,0.87 3.238,1.75 4.914,2.61 84.008,43.2 160.668,99.05 207.094,148.21 56.703,60.03 11.054,152.67 -43.215,163.78 8.246,-47.89 -43.008,-75.16 -79.426,-93.58 -53.516,-27.07 -122.199,-58.53 -180.172,-102.9 -5.449,-4.17 -10.824,-8.42 -15.992,-12.8 -30.523,-25.85 -54.352,-64.63 -62.586,-109.51 -7.855,-42.84 -0.652,-92.95 28.344,-137.02 3.222,-4.43 6.609,-8.84 10.129,-13.21 7.793,-9.66 16.254,-19.32 25.273,-28.88 -28.644,-20.63 -56.492,-43.26 -82.558,-68.83 -0.047,-0.03 -0.098,-0.07 -0.137,-0.12 -47.168,-46.3 -80.227,-110.75 -81.582,-170.88 -1.02,-45.94 5.961,-89.31 47.523,-160.48 8.891,-15.07 19.012,-29.93 29.996,-44.62 -43.75,-34.69 -83.05,-70.36 -114.847,-107 -0.754,-0.89 -1.493,-1.78 -2.262,-2.67 C 207.988,1428.69 214.586,1308.46 282.539,1203.89 396.648,1028.34 682.867,895.66 912.762,780.41 1025.68,723.77 1127.31,662.332 1209.39,565.609 1264.41,500.82 1313.02,422.68 1346.45,320 c 25.33,140.371 23.78,324.73 -11.33,424.398 -33.21,94.352 -100.87,195.434 -240.91,284.542" /><path
         id="path18"
         style="fill:#ffffff;fill-opacity:1;fill-rule:nonzero;stroke:none"
         d="m 1839.66,1600.75 v 0 -56.6 c 0,-86.36 -9.44,-167.61 -42.73,-222 h 144.77 v 278.6 h -102.04 z m 272.89,121.89 v -400.49 h 45.61 v -182.69 h -163.62 v 60.8 h -243.21 v -60.8 H 1587.7 v 182.69 h 41.27 c 36.2,70.35 47.06,149.47 47.06,266.26 v 134.23 h 436.52 v 0" /><path
         id="path20"
         style="fill:#ffffff;fill-opacity:1;fill-rule:nonzero;stroke:none"
         d="m 2429.64,1322.15 v 0 h 74.57 c 41.99,0 73.87,8.71 73.87,47.85 0,45.73 -39.85,48.66 -94.12,48.66 h -54.32 v -96.51 z m 0,191.53 v 0 h 70.97 c 34.01,0 58.62,15.24 58.62,45.72 0,40.62 -33.3,41.35 -69.48,41.35 h -60.11 v -87.07 z m -170.84,208.96 h 249.04 c 117.27,0 210.65,-27.58 210.65,-131.33 0,-53.69 -34.73,-92.87 -68.07,-113.9 56.48,-14.51 86.89,-63.11 86.89,-119.73 0,-116.78 -89.04,-157.42 -224.4,-157.42 H 2258.8 v 522.38 0" /><path
         id="path22"
         style="fill:#ffffff;fill-opacity:1;fill-rule:nonzero;stroke:none"
         d="m 3221.51,1393.97 v 0 h 32.57 c 44.17,0 63.7,29 63.7,74.01 0,48.62 -20.97,72.55 -73.82,72.55 h -22.45 v -146.56 z m -170.84,146.56 v 0 h -23.14 c -52.85,0 -73.14,-23.93 -73.14,-72.55 0,-45.01 19.57,-74.01 63.72,-74.01 h 32.56 v 146.56 z m 170.84,182.11 v -60.22 h 39.83 c 152,0 220.06,-88.53 220.06,-195.91 0,-112.44 -68.06,-194.42 -217.87,-194.42 h -42.02 v -71.83 h -170.84 v 71.83 h -41.99 c -149.83,0 -217.87,81.98 -217.87,194.42 0,107.38 68.04,195.91 220.04,195.91 h 39.82 v 60.22 h 170.84 v 0" /><path
         id="path24"
         style="fill:#ffffff;fill-opacity:1;fill-rule:nonzero;stroke:none"
         d="m 3664.95,1722.64 83.24,-206.04 82.52,206.04 h 183.89 l -192.57,-407.75 c -44.17,-93.6 -87.74,-124.87 -153.48,-128.42 -28.15,-1.52 -66.97,2.13 -112.76,15.13 v 119.79 c 30.64,-5.59 48.52,-9.92 67.88,-7.23 16.84,2.37 30.41,7.99 40.56,29.03 l -191.86,379.45 h 192.58 v 0" /><path
         id="path26"
         style="fill:#ffffff;fill-opacity:1;fill-rule:nonzero;stroke:none"
         d="m 1645.68,1026.4 v 0 -15.44 c 0,-23.601 -2.55,-45.788 -11.67,-60.64 h 39.56 v 76.08 h -27.89 z m 74.55,33.28 V 950.32 h 12.44 v -58.039 h -44.68 v 24.75 h -66.43 v -24.75 h -44.69 v 58.039 h 11.26 c 9.91,19.219 12.88,40.84 12.88,72.74 v 36.62 h 119.22 v 0" /><path
         id="path28"
         style="fill:#ffffff;fill-opacity:1;fill-rule:nonzero;stroke:none"
         d="m 1831.98,965.602 v 0 l -15.02,51.088 -14.42,-51.088 h 29.44 z m 9.12,94.078 51.01,-142.649 h -46.48 l -5.54,18.797 h -46.46 l -5.34,-18.797 h -45.66 l 51,142.649 h 47.47 v 0" /><path
         id="path30"
         style="fill:#ffffff;fill-opacity:1;fill-rule:nonzero;stroke:none"
         d="M 2053.02,1059.68 V 917.031 h -46.64 V 1026.4 h -33.43 v -40.611 c 0,-57.48 -17.98,-71.73 -44.66,-71.73 -9.72,0 -16.03,0.8 -25.33,2.972 v 33.289 c 2.76,-1 5.32,-1.398 10.69,-1.398 9.28,0 14.64,3.777 14.64,37.258 v 73.5 h 124.73 v 0" /><path
         id="path32"
         style="fill:#ffffff;fill-opacity:1;fill-rule:nonzero;stroke:none"
         d="m 2122.14,950.32 v 0 h 17.2 c 11.45,0 20.15,2.379 20.15,13.071 0,12.488 -10.87,13.289 -25.69,13.289 h -11.66 v -26.36 z m 0,59.64 h 22.13 c 36.01,0 58.73,-16.249 58.73,-47.351 0,-30.488 -22.34,-45.578 -59.32,-45.578 h -68.21 v 142.649 h 46.67 v -49.72 0" /><path
         id="path34"
         style="fill:#ffffff;fill-opacity:1;fill-rule:nonzero;stroke:none"
         d="m 2267.69,1009.96 h 44.1 v 49.72 h 46.66 V 917.031 h -46.66 v 59.649 h -44.1 v -59.649 h -46.66 v 142.649 h 46.66 v -49.72 0" /><path
         id="path36"
         style="fill:#ffffff;fill-opacity:1;fill-rule:nonzero;stroke:none"
         d="m 2502.2,1059.68 v -33.28 h -69.4 v -20.39 h 58.71 V 972.719 H 2432.8 V 950.32 h 72.17 v -33.289 h -118.84 v 142.649 h 116.07 v 0" /><path
         id="path38"
         style="fill:#ffffff;fill-opacity:1;fill-rule:nonzero;stroke:none"
         d="m 2574.36,950.32 v 0 h 20.36 c 11.49,0 20.15,2.379 20.15,13.071 0,12.488 -10.87,13.289 -25.7,13.289 h -14.81 v -26.36 z m 0,52.33 v 0 h 19.37 c 9.31,0 16.03,4.14 16.03,12.47 0,11.08 -9.1,11.28 -18.99,11.28 h -16.41 v -23.75 z m -46.67,57.03 h 68.01 c 32.05,0 57.53,-7.51 57.53,-35.84 0,-14.68 -9.49,-25.36 -18.57,-31.121 15.43,-3.981 23.73,-17.239 23.73,-32.68 0,-31.918 -24.33,-43.008 -61.29,-43.008 h -69.41 v 142.649 0" /><path
         id="path40"
         style="fill:#ffffff;fill-opacity:1;fill-rule:nonzero;stroke:none"
         d="m 2721.65,989.16 v 0 c 0,-18.219 5.55,-41.039 27.89,-41.039 20.16,0 28.07,17.481 28.07,41.039 0,19.41 -7.71,39.43 -28.48,39.43 -21.15,0 -27.48,-21.41 -27.48,-39.43 z m 102.62,0 c 0,-48.57 -32.62,-75.91 -74.73,-75.91 -44.69,0 -74.53,27.77 -74.53,76.301 0,44.789 30.24,73.939 74.53,73.939 50.8,0 74.73,-36.66 74.73,-74.33 v 0" /><path
         id="path42"
         style="fill:#ffffff;fill-opacity:1;fill-rule:nonzero;stroke:none"
         d="m 2943.87,1005.21 c -1.4,14.87 -10.68,23.38 -25.31,23.38 -16.42,0 -26.28,-14.07 -26.28,-41.602 0,-20.039 4.37,-38.867 28.07,-38.867 15.01,0 22.12,10.539 23.93,24.188 h 44.89 c -4.19,-36.868 -30.49,-59.059 -68.04,-59.059 -47.05,0 -75.51,28.941 -75.51,75.301 0,46.179 31.23,74.939 70.97,74.939 43.5,0 67.81,-21.63 71.58,-58.28 h -44.3 v 0" /><path
         id="path44"
         style="fill:#ffffff;fill-opacity:1;fill-rule:nonzero;stroke:none"
         d="m 3090.02,917.031 h -46.67 V 1026.4 h -41.92 v 33.28 h 130.5 v -33.28 h -41.91 v -109.369 0" /><path
         id="path46"
         style="fill:#ffffff;fill-opacity:1;fill-rule:nonzero;stroke:none"
         d="m 3188.92,989.16 v 0 c 0,-18.219 5.53,-41.039 27.89,-41.039 20.16,0 28.08,17.481 28.08,41.039 0,19.41 -7.73,39.43 -28.49,39.43 -21.15,0 -27.48,-21.41 -27.48,-39.43 z m 102.62,0 c 0,-48.57 -32.62,-75.91 -74.73,-75.91 -44.69,0 -74.55,27.77 -74.55,76.301 0,44.789 30.23,73.939 74.55,73.939 50.81,0 74.73,-36.66 74.73,-74.33 v 0" /><path
         id="path48"
         style="fill:#ffffff;fill-opacity:1;fill-rule:nonzero;stroke:none"
         d="m 3355.15,1059.68 v -36.84 c 0,-11.3 6.52,-16.44 17.77,-16.44 9.11,0 17.01,1.17 21.17,2.59 v 50.69 h 46.65 V 917.031 h -46.65 v 57.668 c -8.28,-1.98 -14.22,-3.168 -38.94,-3.168 -20.96,0 -46.66,13.071 -46.66,43.979 v 44.17 h 46.66 v 0" /><path
         id="path50"
         style="fill:#ffffff;fill-opacity:1;fill-rule:nonzero;stroke:none"
         d="m 3515.09,1009.96 h 44.08 v 49.72 h 46.69 V 917.031 h -46.69 v 59.649 h -44.08 v -59.649 h -46.64 v 142.649 h 46.64 v -49.72 0" /><path
         id="path52"
         style="fill:#ffffff;fill-opacity:1;fill-rule:nonzero;stroke:none"
         d="m 3827.88,917.031 v 0 h -46.63 v 142.649 h 46.63 V 917.031 Z M 3680.2,950.32 v 0 h 17.19 c 11.47,0 20.19,2.379 20.19,13.071 0,12.488 -10.9,13.289 -25.72,13.289 h -11.66 v -26.36 z m 0,59.64 h 22.14 c 36,0 58.73,-16.249 58.73,-47.351 0,-30.488 -22.36,-45.578 -59.32,-45.578 h -68.23 v 142.649 h 46.68 v -49.72 0" /><path
         id="path54"
         style="fill:#ffffff;fill-opacity:1;fill-rule:nonzero;stroke:none"
         d="m 3905.58,1100.52 v 0 c 1.42,-11.1 12.09,-12.28 21.15,-12.28 12.26,0 18.21,3.77 19.6,12.28 h 15.44 c -0.8,-20.41 -17.22,-30.3 -36.21,-30.3 -20.77,0 -34.02,8.31 -35.6,30.3 h 15.62 z m 87.4,-40.84 V 917.031 h -44.69 v 45.379 l 2.38,36.461 -51.41,-81.84 h -43.69 v 142.649 h 44.68 v -45.36 l -2.38,-36.449 51.4,81.809 h 43.71 v 0" /><path
         id="path56"
         style="fill:#ffffff;fill-opacity:1;fill-rule:nonzero;stroke:none"
         d="m 1741.18,710.699 v 0 h 11.96 c 16.22,0 23.41,10.66 23.41,27.172 0,17.859 -7.73,26.649 -27.14,26.649 h -8.23 v -53.821 z m -62.76,53.821 v 0 h -8.51 c -19.4,0 -26.83,-8.79 -26.83,-26.649 0,-16.512 7.16,-27.172 23.36,-27.172 h 11.98 v 53.821 z m 62.76,66.871 v -22.09 h 14.63 c 55.84,0 80.81,-32.5 80.81,-71.949 0,-41.313 -24.97,-71.43 -80.02,-71.43 h -15.42 v -26.391 h -62.76 v 26.391 H 1663 c -55.03,0 -80.04,30.117 -80.04,71.43 0,39.449 25.01,71.949 80.85,71.949 h 14.61 v 22.09 h 62.76 v 0" /><path
         id="path58"
         style="fill:#ffffff;fill-opacity:1;fill-rule:nonzero;stroke:none"
         d="m 2015.47,831.391 v -44.743 h -93.33 v -27.449 h 78.95 V 714.41 h -78.95 v -30.078 h 97.07 v -44.801 h -159.83 v 191.86 h 156.09 v 0" /><path
         id="path60"
         style="fill:#ffffff;fill-opacity:1;fill-rule:nonzero;stroke:none"
         d="m 2136.53,786.648 v 0 -20.796 c 0,-31.704 -3.43,-61.563 -15.68,-81.52 h 53.2 v 102.316 h -37.52 z m 100.26,44.743 V 684.332 h 16.77 v -72.371 h -60.13 v 27.57 h -89.33 v -27.57 h -60.07 v 72.371 h 15.14 c 13.29,25.84 17.29,54.848 17.29,97.789 v 49.27 h 160.33 v 0" /><path
         id="path62"
         style="fill:#ffffff;fill-opacity:1;fill-rule:nonzero;stroke:none"
         d="m 2437.86,831.391 v -44.743 h -93.34 v -27.449 h 78.99 V 714.41 h -78.99 v -30.078 h 97.05 v -44.801 h -159.8 v 191.86 h 156.09 v 0" /><path
         id="path64"
         style="fill:#ffffff;fill-opacity:1;fill-rule:nonzero;stroke:none"
         d="m 2532.2,744 v 0 h 26.06 c 14.62,0 25.25,5.852 25.25,22.379 0,17.871 -20.2,20.269 -33.5,20.269 H 2532.2 V 744 Z m 0,-104.469 h -62.74 v 191.86 h 92.23 c 55.06,0 81.64,-25.282 81.64,-64.743 0,-41.308 -24.45,-67.41 -79.49,-67.41 h -31.64 v -59.707 0" /><path
         id="path66"
         style="fill:#ffffff;fill-opacity:1;fill-rule:nonzero;stroke:none"
         d="m 2749.07,704.84 v 0 l -20.23,68.75 -19.39,-68.75 h 39.62 z m 12.23,126.551 68.59,-191.86 h -62.5 l -7.44,25.328 h -62.46 l -7.19,-25.328 h -61.42 l 68.61,191.86 h 63.81 v 0" /><path
         id="path68"
         style="fill:#ffffff;fill-opacity:1;fill-rule:nonzero;stroke:none"
         d="m 3049.89,831.391 v -191.86 h -62.76 v 147.117 h -44.95 V 732 c 0,-77.25 -24.18,-96.43 -60.08,-96.43 -13.03,0 -21.52,1.012 -34.04,3.961 v 44.801 c 3.72,-1.352 7.2,-1.902 14.37,-1.902 12.5,0 19.67,5.07 19.67,50.14 v 98.821 h 167.79 v 0" /><path
         id="path70"
         style="fill:#ffffff;fill-opacity:1;fill-rule:nonzero;stroke:none"
         d="m 3149.85,684.332 v 0 H 3173 c 15.4,0 27.11,3.168 27.11,17.578 0,16.781 -14.61,17.86 -34.57,17.86 h -15.69 v -35.438 z m 0,80.188 h 29.79 c 48.38,0 78.97,-21.829 78.97,-63.7 0,-41.031 -30.05,-61.289 -79.77,-61.289 h -91.73 v 191.86 h 62.74 v -66.871 0" /><path
         id="path72"
         style="fill:#ffffff;fill-opacity:1;fill-rule:nonzero;stroke:none"
         d="m 3350.32,764.52 h 59.29 v 66.871 h 62.76 v -191.86 h -62.76 v 80.239 h -59.29 v -80.239 h -62.75 v 191.86 h 62.75 v -66.871 0" /><path
         id="path74"
         style="fill:#ffffff;fill-opacity:1;fill-rule:nonzero;stroke:none"
         d="m 3770.98,639.531 v 0 h -62.75 v 191.86 h 62.75 v -191.86 z m -198.64,44.801 v 0 h 23.16 c 15.39,0 27.11,3.168 27.11,17.578 0,16.781 -14.63,17.86 -34.57,17.86 h -15.7 v -35.438 z m 0,80.188 h 29.8 c 48.39,0 78.98,-21.829 78.98,-63.7 0,-41.031 -30.06,-61.289 -79.78,-61.289 h -91.73 v 191.86 h 62.73 v -66.871 0" /><path
         id="path76"
         style="fill:#ffffff;fill-opacity:1;fill-rule:nonzero;stroke:none"
         d="m 3875.46,886.301 v 0 c 1.85,-14.91 16.24,-16.512 28.44,-16.512 16.51,0 24.49,5.051 26.33,16.512 h 20.78 c -1.08,-27.41 -23.17,-40.762 -48.66,-40.762 -27.95,0 -45.77,11.191 -47.92,40.762 h 21.03 z m 117.52,-54.91 v -191.86 h -60.09 v 61.039 l 3.2,49.02 -69.18,-110.059 h -58.71 v 191.86 h 60.1 v -61 l -3.19,-49.032 69.11,110.032 h 58.76 v 0" /><path
         id="path78"
         style="fill:#ffffff;fill-opacity:1;fill-rule:nonzero;stroke:none"
         d="m 1654.6,544.961 32.88,-81.379 32.57,81.379 h 72.64 L 1716.63,383.91 c -17.42,-36.949 -34.9,-50.699 -60.58,-50.699 -11.18,0 -24.03,3.148 -31.76,6.289 v 47.012 c 4,-1.453 6.3,-2.871 14.01,-2.871 7.15,0 12.03,3.14 16.02,11.461 l -75.77,149.859 h 76.05 v 0" /><path
         id="path80"
         style="fill:#ffffff;fill-opacity:1;fill-rule:nonzero;stroke:none"
         d="m 1883.08,473.031 h 63.73 v 71.93 h 67.5 V 338.648 h -67.5 v 86.243 h -63.73 v -86.243 h -67.48 v 206.313 h 67.48 v -71.93 0" /><path
         id="path82"
         style="fill:#ffffff;fill-opacity:1;fill-rule:nonzero;stroke:none"
         d="M 2253.08,544.961 V 338.648 h -64.63 v 65.614 l 3.44,52.726 -74.34,-118.34 h -63.18 v 206.313 h 64.59 v -65.629 l -3.4,-52.711 74.31,118.34 h 63.21 v 0" /><path
         id="path84"
         style="fill:#ffffff;fill-opacity:1;fill-rule:nonzero;stroke:none"
         d="m 2360.62,386.781 v 0 h 29.43 c 16.58,0 29.17,3.457 29.17,18.891 0,18.058 -15.72,19.219 -37.16,19.219 h -21.44 v -38.11 z m 0,75.649 v 0 h 27.98 c 13.46,0 23.17,6.011 23.17,18.05 0,16.051 -13.14,16.372 -27.43,16.372 h -23.72 V 462.43 Z m -67.48,82.531 h 98.34 c 46.32,0 83.2,-10.891 83.2,-51.902 0,-21.168 -13.71,-36.637 -26.88,-44.95 22.29,-5.73 34.31,-24.918 34.31,-47.281 0,-46.18 -35.18,-62.18 -88.64,-62.18 h -100.33 v 206.313 0" /><path
         id="path86"
         style="fill:#ffffff;fill-opacity:1;fill-rule:nonzero;stroke:none"
         d="m 2682.84,544.961 v -48.109 h -100.35 v -29.563 h 84.92 v -48.117 h -84.92 v -32.391 h 104.37 v -48.133 h -171.84 v 206.313 h 167.82 v 0" /><path
         id="path88"
         style="fill:#ffffff;fill-opacity:1;fill-rule:nonzero;stroke:none"
         d="m 2787.24,450.961 v 0 h 28 c 15.75,0 27.17,6.32 27.17,24.059 0,19.218 -21.71,21.832 -36.02,21.832 h -19.15 v -45.891 z m 0,-112.313 h -67.47 v 206.313 h 99.22 c 59.15,0 87.75,-27.211 87.75,-69.641 0,-44.422 -26.32,-72.5 -85.47,-72.5 h -34.03 v -64.172 0" /><path
         id="path90"
         style="fill:#ffffff;fill-opacity:1;fill-rule:nonzero;stroke:none"
         d="m 3071.18,466.16 c -2.02,21.481 -15.45,33.809 -36.59,33.809 -23.74,0 -38.04,-20.328 -38.04,-60.168 0,-28.942 6.3,-56.16 40.62,-56.16 21.73,0 31.99,15.179 34.58,34.949 h 64.9 c -6.01,-53.328 -44.04,-85.379 -98.37,-85.379 -68.03,0 -109.19,41.828 -109.19,108.891 0,66.757 45.16,108.277 102.62,108.277 62.91,0 98.09,-31.207 103.51,-84.219 h -64.04 v 0" /><path
         id="path92"
         style="fill:#ffffff;fill-opacity:1;fill-rule:nonzero;stroke:none"
         d="M 3363.96,544.961 V 338.648 h -64.6 v 65.614 l 3.43,52.726 -74.33,-118.34 h -63.2 v 206.313 h 64.62 v -65.629 l -3.41,-52.711 74.32,118.34 h 63.17 v 0" /><path
         id="path94"
         style="fill:#ffffff;fill-opacity:1;fill-rule:nonzero;stroke:none"
         d="m 3520.97,338.648 h -67.48 v 158.204 h -60.61 v 48.109 h 188.7 v -48.109 h -60.61 v -158.204 0" /><path
         id="path96"
         style="fill:#ffffff;fill-opacity:1;fill-rule:nonzero;stroke:none"
         d="m 3778.32,544.961 v -48.109 h -100.35 v -29.563 h 84.93 v -48.117 h -84.93 v -32.391 h 104.36 v -48.133 h -171.84 v 206.313 h 167.83 v 0" /><path
         id="path98"
         style="fill:#ffffff;fill-opacity:1;fill-rule:nonzero;stroke:none"
         d="m 3932.17,338.648 h -67.45 v 158.204 h -60.64 v 48.109 h 188.7 v -48.109 h -60.61 v -158.204 0" /></g></g></svg>